# xmcd CD database file
#
# Track frame offsets:
#	150
#	16170
#	77080
#	92247
#	179964
#
# Disc length: 2942 seconds
#
# Revision: 0
# Processed by: cddbd v1.5.1PL2 Copyright (c) Steve Scherf et al.
# Submitted via: CDex 1.51
#
DISCID=390b7c05
DTITLE=Kurt Tepperwein - Power - Dynamik aus der Stille
DYEAR=2005
DGENRE=New Age
TTITLE0=Power 1 Affirmationen
TTITLE1=Power 2 Subliminar
TTITLE2=Power 3 Affirmationen
TTITLE3=Power 4 Subliminar
TTITLE4=Power 5 Repeat Affirmation
EXTD=YEAR: 2005
EXTT0=
EXTT1=
EXTT2=
EXTT3=
EXTT4=
PLAYORDER=
